<?xml version="1.0" standalone="no"?><!DOCTYPE svg PUBLIC "-//W3C//DTD SVG 1.1//EN" "http://www.w3.org/Graphics/SVG/1.1/DTD/svg11.dtd"><svg t="1683099893792" class="icon" viewBox="0 0 1024 1024" version="1.1" xmlns="http://www.w3.org/2000/svg" p-id="2794" width="128" height="128" xmlns:xlink="http://www.w3.org/1999/xlink"><path d="M535.893333 831.146667H158.72c-37.546667 0-68.266667-30.72-68.266667-68.266667V261.12c0-37.546667 30.72-68.266667 68.266667-68.266667h377.173333c37.546667 0 68.266667 30.72 68.266667 68.266667v500.053333c0 39.253333-30.72 69.973333-68.266667 69.973334z" fill="#f1404b" opacity=".3" p-id="2795" data-spm-anchor-id="a313x.7781069.0.i0" class="selected"></path><path d="M691.2 989.866667H170.666667c-51.2 0-92.16-40.96-92.16-92.16V128C76.8 76.8 119.466667 34.133333 170.666667 34.133333h573.44c6.826667 0 11.946667 1.706667 17.066666 6.826667l187.733334 174.08c5.12 5.12 8.533333 11.946667 8.533333 18.773333v256c0 13.653333-11.946667 25.6-25.6 25.6s-27.306667-11.946667-27.306667-25.6V245.76L733.866667 85.333333H170.666667C146.773333 85.333333 128 104.106667 128 128v769.706667C128 921.6 146.773333 938.666667 170.666667 938.666667h520.533333c13.653333 0 25.6 11.946667 25.6 25.6s-11.946667 25.6-25.6 25.6z" fill="#f1404b" p-id="2796" data-spm-anchor-id="a313x.7781069.0.i1" class=""></path><path d="M925.013333 259.413333h-121.173333c-51.2 0-92.16-40.96-92.16-92.16V59.733333c0-13.653333 11.946667-25.6 25.6-25.6s25.6 11.946667 25.6 25.6v105.813334c0 22.186667 18.773333 40.96 40.96 40.96h121.173333c13.653333 0 25.6 11.946667 25.6 25.6s-11.946667 27.306667-25.6 27.306666zM471.04 329.386667H213.333333c-13.653333 0-25.6-11.946667-25.6-25.6s11.946667-25.6 25.6-25.6h257.706667c13.653333 0 25.6 11.946667 25.6 25.6s-11.946667 25.6-25.6 25.6zM570.026667 537.6H213.333333c-13.653333 0-25.6-11.946667-25.6-25.6s11.946667-25.6 25.6-25.6h356.693334c13.653333 0 25.6 11.946667 25.6 25.6s-10.24 25.6-25.6 25.6zM807.253333 928.426667c-13.653333 0-25.6-11.946667-25.6-25.6V604.16c0-13.653333 11.946667-25.6 25.6-25.6s25.6 11.946667 25.6 25.6v298.666667c0 13.653333-11.946667 25.6-25.6 25.6z" fill="#f1404b" p-id="2797" data-spm-anchor-id="a313x.7781069.0.i2" class=""></path><path d="M925.013333 733.866667c-6.826667 0-13.653333-1.706667-18.773333-6.826667l-98.986667-98.986667-98.986666 98.986667c-10.24 10.24-25.6 10.24-35.84 0s-10.24-25.6 0-35.84l117.76-117.76c10.24-10.24 25.6-10.24 35.84 0l117.76 117.76c10.24 10.24 10.24 25.6 0 35.84-6.826667 5.12-11.946667 6.826667-18.773334 6.826667z" fill="#f1404b" p-id="2798" data-spm-anchor-id="a313x.7781069.0.i3" class=""></path></svg>